<svg width="75" height="72" viewBox="0 0 75 72" fill="none" xmlns="http://www.w3.org/2000/svg">
<path d="M37.7311 42.5956C45.8298 37.823 54.9145 34.6303 64.5332 33.1469C58.7035 30.0224 49.677 26.6807 37.7311 26.6807C26.1237 26.6807 17.196 29.7941 10.9448 33.1494C20.5577 34.6338 29.6369 37.8257 37.7311 42.5956Z" fill="#2E2E2E"/>
<path d="M74.9555 36.5596C62.9672 36.8982 51.5898 40.0344 41.9348 45.277C46.6959 48.5636 50.8962 52.3612 54.4446 56.5968C58.313 61.2146 61.319 66.2502 63.3995 71.5831H72.7858C73.9841 71.5831 74.9555 70.6116 74.9555 69.4133V36.5596Z" fill="#2E2E2E"/>
<path d="M0.507324 47.0244C7.82477 47.4399 14.7345 49.9576 20.6078 54.3702C26.414 58.7324 30.8437 64.799 33.2103 71.5831H58.7096C49.9336 51.356 26.6727 37.2987 0.507324 36.5596V47.0244Z" fill="#2E2E2E"/>
<path d="M28.5784 71.5836C23.9718 60.1661 12.9626 52.2086 0.507324 51.3745V69.4137C0.507324 70.612 1.47879 71.5834 2.67708 71.5834L28.5784 71.5836Z" fill="#2E2E2E"/>
<path d="M68.4046 30.3433C68.7619 30.5532 69.1078 30.7631 69.4466 30.9724V23.9768C72.3 23.0578 74.3708 20.3784 74.3708 17.2234V7.37496C74.3708 3.46338 71.1884 0.281006 67.2768 0.281006C63.3652 0.281006 60.1829 3.46338 60.1829 7.37496V17.2235C60.1829 20.3785 62.2537 23.058 65.1071 23.9769V28.5597C66.3107 29.1583 67.4113 29.7598 68.4046 30.3433Z" fill="#2E2E2E"/>
<path d="M35.5615 22.3788V18.4223C35.5615 17.224 36.5329 16.2525 37.7312 16.2525C38.9295 16.2525 39.901 17.224 39.901 18.4223V22.3788C43.4351 22.4922 46.7214 22.8754 49.7495 23.4459V15.1922C50.1008 15.3718 50.4818 15.4598 50.8606 15.4598C51.6061 15.4598 52.3423 15.121 52.824 14.4789C53.6365 13.3956 53.417 11.8588 52.3337 11.0462L39.2023 1.1977C38.3306 0.543802 37.1317 0.543802 36.26 1.1977L23.1286 11.0462C22.0453 11.8588 21.8258 13.3956 22.6381 14.4789C23.3646 15.4476 24.6698 15.7231 25.7128 15.1899V23.4459C28.741 22.8755 32.0274 22.4922 35.5615 22.3788Z" fill="#2E2E2E"/>
<path d="M10.3559 28.5596V23.9768C13.2094 23.0578 15.2801 20.3784 15.2801 17.2234V7.37496C15.2801 3.46338 12.0977 0.281006 8.18614 0.281006C4.27456 0.281006 1.09204 3.46323 1.09204 7.37496V17.2235C1.09204 20.3785 3.16292 23.058 6.01624 23.9769V30.9726C6.35504 30.7632 6.70096 30.5532 7.05822 30.3434C8.0515 29.7598 9.15208 29.1584 10.3559 28.5596Z" fill="#2E2E2E"/>
</svg>
