<svg width="100" height="100" viewBox="0 0 100 100" fill="none" xmlns="http://www.w3.org/2000/svg">
<g clip-path="url(#clip0_0_256)">
<path d="M27.0918 26.7578H25.8379L23.4948 38.4766H29.435L27.0918 26.7578Z" fill="#567AB8"/>
<path d="M73.8636 50C75.1287 53.3982 76.8113 56.149 78.6734 58.4897C80.5355 56.149 82.4135 53.398 83.6785 50H73.8636Z" fill="#F3C87A"/>
<path d="M91.211 18.1818H54.8276L62.4139 79.0566C62.5481 81.5465 61.8674 83.8906 60.2424 85.7258L47.3951 100.408H91.211C96.0574 100.408 100 96.4658 100 91.6193V27.1662C100 22.3197 96.0574 18.1818 91.211 18.1818Z" fill="#F3C87A"/>
<path d="M47.6883 7.69902C47.1418 3.31016 43.391 0 38.968 0H8.78906C3.94258 0 0 3.94258 0 8.78906V73.6328C0 78.4793 3.94258 82.4219 8.78906 82.4219C26.3027 82.4219 38.9018 82.4219 54.9904 82.4219C55.8451 81.4449 56.5615 80.8332 56.5918 79.558C56.5992 79.2383 47.7279 8.01621 47.6883 7.69902ZM35.9266 55.9975C34.373 56.3172 32.7994 55.3086 32.4791 53.7L30.6066 44.3359H22.3232L20.4508 53.7C20.1361 55.285 18.6082 56.3264 17.0033 55.9975C15.4184 55.6799 14.3883 54.1379 14.7059 52.55L20.565 23.2531C20.8396 21.8855 22.0414 20.8984 23.4375 20.8984H29.4922C30.8883 20.8984 32.09 21.8855 32.3646 23.2531L38.224 52.55C38.5416 54.1379 37.5117 55.6799 35.9266 55.9975Z" fill="#567AB8"/>
<path d="M34.2307 88.2812L34.7334 92.301C35.0686 94.993 36.8573 97.7381 39.7995 99.1088C45.3518 92.9967 41.9926 96.6943 49.6352 88.2812H34.2307Z" fill="#567AB8"/>
<path d="M81.3883 72.7273C80.0164 72.7273 78.6753 72.5681 77.3649 72.2498C76.075 71.9315 74.9079 71.4242 73.8637 70.7279C72.8195 70.0515 71.9902 69.1761 71.376 68.1018C70.7617 67.0275 70.4546 65.7344 70.4546 64.2224C70.4546 62.5911 70.7924 61.099 71.4681 59.7462C72.1438 58.3735 73.0959 57.16 74.3244 56.1056C75.5529 55.0512 77.0066 54.1758 78.6855 53.4795C80.385 52.7633 82.238 52.256 84.2445 51.9576L85.258 55.8967C83.4562 56.215 81.8899 56.6328 80.559 57.15C79.2486 57.6673 78.1634 58.274 77.3035 58.9703C76.4435 59.6666 75.7986 60.4127 75.3686 61.2085C74.9591 62.0241 74.7543 62.8796 74.7543 63.7748C74.7543 64.491 74.8874 65.1177 75.1536 65.6548C75.4403 66.192 75.819 66.6396 76.29 66.9977C76.7609 67.3757 77.283 67.6741 77.8563 67.8929C78.4296 68.1317 79.0234 68.3008 79.6376 68.4002C80.2519 68.4997 80.8354 68.5495 81.3883 68.5495C82.801 68.5495 84.1114 68.4201 85.3195 68.1615C86.548 67.9029 87.6229 67.5846 88.5443 67.2066L89.7728 71.0561C89.2814 71.2949 88.5852 71.5436 87.6843 71.8022C86.8039 72.0608 85.8109 72.2796 84.7052 72.4587C83.62 72.6377 82.5144 72.7273 81.3883 72.7273ZM75.2765 56.1951C74.5598 55.9166 73.8944 55.5187 73.2801 55.0014C72.6864 54.4842 72.2052 53.8476 71.8367 53.0916C71.4886 52.3157 71.3145 51.4304 71.3145 50.4357C71.3145 49.1823 71.6524 48.0981 72.3281 47.183C73.0037 46.2678 73.9046 45.5616 75.0308 45.0642C76.1569 44.5669 77.3854 44.3182 78.7163 44.3182C79.3715 44.3182 79.9755 44.358 80.5283 44.4375C81.1016 44.5171 81.6851 44.6365 82.2789 44.7956L81.6032 48.7646C81.1733 48.6651 80.7331 48.5855 80.2826 48.5258C79.8321 48.4661 79.4329 48.4363 79.0848 48.4363C78.3682 48.4363 77.7437 48.5358 77.2113 48.7347C76.6995 48.9337 76.3002 49.2221 76.0136 49.6001C75.7474 49.9582 75.6143 50.3859 75.6143 50.8833C75.6143 51.2812 75.7371 51.6592 75.9828 52.0173C76.249 52.3754 76.5869 52.6937 76.9964 52.9722C77.4059 53.2308 77.8563 53.4497 78.3477 53.6287C78.8391 53.7879 79.3203 53.8774 79.7912 53.8973L75.2765 56.1951Z" fill="#FFFCF7"/>
</g>
<defs>
<clipPath id="clip0_0_256">
<rect width="100" height="100" fill="white"/>
</clipPath>
</defs>
</svg>
