<svg width="98" height="106" viewBox="0 0 98 106" fill="none" xmlns="http://www.w3.org/2000/svg">
<g clip-path="url(#clip0_0_12)">
<path d="M92.4902 11.9426C92.1568 11.7474 91.8235 11.5328 91.4117 11.2401C91.3333 11.1815 91.2157 11.162 91.1176 11.2205C90.549 11.5132 89.9412 11.806 89.1764 12.1377C89.0392 12.1962 88.8823 12.1377 88.8235 12.0206C88.4117 11.3376 88.0784 10.7132 87.8039 10.1278C87.7647 10.0497 87.6863 9.99116 87.6078 9.97164C87.6078 9.97164 87.5686 9.97164 87.549 9.97164C87.0784 9.97164 86.647 9.93262 86.2549 9.89359C86.7059 9.75699 87.1961 9.63991 87.7843 9.52282C87.9019 9.50331 88.0196 9.54234 88.098 9.63991C88.4706 10.1473 88.8431 10.6937 89.2157 11.2791L89.2549 11.3376H89.3137C89.9608 11.0644 90.5882 10.8303 91.1961 10.6546C91.3137 10.6156 91.4313 10.6546 91.5098 10.7522C91.9215 11.201 92.2353 11.5913 92.5098 11.9621L92.4902 11.9426Z" fill="#BD9473"/>
<path d="M89.9804 7.59094C89.2353 7.35677 88.451 7.06406 87.5294 6.67378C87.3333 6.59573 87.098 6.61524 86.9216 6.77135C85.9412 7.61045 84.8431 8.44955 83.4706 9.42525C83.2353 9.60088 82.902 9.56185 82.7059 9.3472C81.5882 8.15685 80.6667 7.08358 79.8431 6.06885C79.7255 5.93225 79.5686 5.85419 79.3725 5.85419C79.3333 5.85419 79.2941 5.85419 79.2549 5.85419C78.3137 6.04933 77.4706 6.18593 76.6667 6.26399C77.4902 5.79565 78.4118 5.34683 79.5294 4.85898C79.7451 4.76141 80.0196 4.80044 80.1961 4.95655C81.1569 5.79565 82.1176 6.71281 83.1176 7.74705L83.1961 7.84462L83.2941 7.76657C84.451 6.98601 85.6078 6.26399 86.7255 5.62003C86.9412 5.50294 87.2157 5.52246 87.4118 5.65905C88.4314 6.38107 89.2353 7.00552 89.9412 7.61045L89.9804 7.59094Z" fill="#BD9473"/>
<path opacity="0.47" d="M79.0196 13.8159C78.6079 13.933 78.1961 14.0696 77.7647 14.2257C77.5686 13.5232 77.3726 12.8402 77.1765 12.1377C77.8039 12.6841 78.4314 13.25 79.0196 13.8159Z" fill="#D7A556"/>
<path d="M44.5882 41.7795C43.7843 41.6234 42.9412 41.4477 42.0588 41.3111C37.6471 40.5696 32.451 40.0818 26.6275 40.2964C15.0392 40.7062 5.82353 43.6918 0 46.1116C13.2549 43.1454 25.2549 42.5015 35.8431 43.204C36.8627 43.2625 37.8627 43.3601 38.8627 43.4382C38.9804 43.3991 39.0784 43.3601 39.1961 43.3406C40.3529 42.9503 41.5294 42.5991 42.7059 42.2868C43.3333 42.1112 43.9412 41.9551 44.5686 41.799L44.5882 41.7795ZM39.3137 43.3211H39.2157C39.2157 43.3211 39.1373 43.3406 39.1176 43.3601L39.3333 43.3211H39.3137Z" fill="#839ED0"/>
<path d="M29.2353 47.9459C29.2353 47.9459 29.1961 47.9459 29.1765 47.9849H29.2549V47.9459H29.2353ZM39.1961 43.3015C39.1961 43.3015 39.1176 43.3211 39.098 43.3406L39.3137 43.3015H39.2157H39.1961Z" fill="#839ED0"/>
<path d="M95.7843 44.7846C79.5882 38.5206 61.4314 37.5449 44.5882 41.76C43.9608 41.9161 43.3333 42.0722 42.7255 42.2478C41.549 42.56 40.3725 42.9113 39.2157 43.3016H39.3137L39.098 43.3406C39.098 43.3406 39.1765 43.3211 39.1961 43.3016C39.0784 43.3406 38.9804 43.3601 38.8627 43.3991C35.2157 44.5505 31.4314 46.1896 27.7843 47.8873C26.2157 48.6094 24.6667 49.3509 23.1569 50.0729L29.3137 48.6094C35.2353 47.2629 48.9608 43.6918 54.8431 43.0284C69.2157 41.0184 83.9608 41.9356 98 45.6823C97.2745 45.37 96.5294 45.0773 95.7843 44.7846ZM29.1765 47.9849C29.1765 47.9849 29.2157 47.9654 29.2353 47.9459L29.1569 47.9849H29.1765Z" fill="#839ED0"/>
<g opacity="0.53">
<path d="M37.6471 42.5991C37.6471 42.5991 37.5686 42.6186 37.549 42.6381L37.7647 42.5991H37.6667H37.6471ZM27.6863 47.2434C27.6863 47.2434 27.6471 47.2629 27.6275 47.2824H27.7059V47.2434H27.6863Z" fill="#5679B6"/>
<path d="M44.5882 41.7795C43.7843 41.6234 42.9412 41.4477 42.0588 41.3111C41.7647 41.3892 41.4706 41.4672 41.1765 41.5453C40 41.8575 38.8235 42.2088 37.6667 42.599H37.7647L37.549 42.6381C37.549 42.6381 37.6275 42.6186 37.6471 42.599C37.0588 42.7747 36.4706 42.9698 35.8627 43.1845C36.8824 43.243 37.8824 43.3406 38.8824 43.4186C39 43.3796 39.098 43.3406 39.2157 43.3211C40.3725 42.9308 41.549 42.5795 42.7255 42.2673C43.3529 42.0917 43.9608 41.9356 44.5882 41.7795ZM39.3137 43.3211H39.2157C39.2157 43.3211 39.1373 43.3406 39.1176 43.3601L39.3333 43.3211H39.3137Z" fill="#5679B6"/>
</g>
<path d="M90.6667 47.4385C74.8627 46.0335 58.9804 46.4823 43.2549 48.6484C49.8823 46.5604 56.9608 45.6042 63.8824 45.1554C72.8431 44.6675 81.9608 45.2529 90.6667 47.4385Z" fill="#839ED0"/>
<path d="M44.2941 67.4013C44.4118 68.7088 44.1765 70.1528 43.5882 71.7139C42.9804 73.4116 42.1177 74.7386 41.0392 75.6948C37.5098 78.817 30.8824 80.7294 21.1765 81.4124C19.9412 81.5099 18.7451 81.549 17.6275 81.549C9.56863 81.549 5.37255 79.3439 5.07844 74.9142C4.92157 72.7286 6.07844 70.426 8.56863 68.0258C10.4314 66.25 12.4314 64.9426 14.6078 64.123C17.0588 63.1863 20.3726 62.5814 24.549 62.2887C26 62.1716 26.7255 62.2887 26.7451 62.6594C26.7451 62.796 26.6667 62.9717 26.4706 63.1863C26.2745 63.401 26.1177 63.4985 26.0196 63.518C21 64.806 16.8824 66.1329 13.6863 67.4794C10.2353 68.9429 8.54902 70.1723 8.62746 71.148C8.70589 72.1627 9.54902 73.1775 11.1961 74.1337C13.4118 75.4216 16.4314 76.0655 20.2549 76.0655C21.2745 76.0655 22.3137 76.0265 23.3922 75.9485C29.3529 75.4216 33.9608 74.5825 37.2157 73.4312C39.7255 72.553 41.0588 71.6749 41.1961 70.8163C41.1961 70.7577 40.902 70.3089 40.3333 69.4308C39.6863 68.4746 39.3137 67.4404 39.2157 66.3085C39.1569 65.5085 39.3726 64.6889 39.8627 63.8888C40.2941 63.1668 40.6863 62.796 41.0588 62.7765C41.4902 62.7375 42.098 63.2253 42.902 64.2401C43.7843 65.3524 44.2549 66.4061 44.3137 67.3818L44.2941 67.4013ZM30.3333 87.5203C30.3333 88.3203 30.098 89.1985 29.6471 90.1546C29.098 91.2865 28.4706 91.8524 27.7255 91.8524C26.8431 91.8524 26.1177 91.5792 25.5686 91.0133C25.1765 90.5839 24.9804 90.1937 24.9804 89.8619C24.9804 89.4326 25.2745 88.6716 25.8431 87.5983C26.5098 86.3884 27.1177 85.803 27.6863 85.803C28.2157 85.803 28.7843 85.9982 29.4118 86.408C30.0392 86.8177 30.3529 87.1885 30.3529 87.5203H30.3333Z" fill="#5679B6"/>
<path d="M56.1961 76.046C56.7059 76.046 56.9608 76.4753 56.9608 77.3339C56.9608 78.1926 56.7451 78.9926 56.3333 79.7927C55.8823 80.6903 55.3529 81.1392 54.7647 81.1392C53.1961 81.1392 52.1765 80.8465 51.7059 80.2415C51.2941 79.7146 51 78.5243 50.8431 76.6314C50.3529 72.0847 49.8039 66.2305 49.1961 59.0688C49.1373 58.0151 49.4118 56.8442 49.9804 55.5758C50.549 54.3074 51.0784 53.683 51.5294 53.683C52.098 53.683 52.5686 55.5368 52.902 59.225C53.2353 62.9131 53.6863 67.7331 54.2353 73.6653C54.3333 74.602 54.451 75.2069 54.6471 75.4801C54.902 75.8509 55.4314 76.046 56.2157 76.046H56.1961Z" fill="#5679B6"/>
<path d="M72.902 70.7382C72.902 71.4992 72.549 72.4164 71.8431 73.5482C71.1373 74.6605 70.2745 75.6557 69.2353 76.5143C67.4706 77.9974 65.2157 79.1682 62.4902 79.9878C59.9412 80.7684 57.3725 81.1392 54.7843 81.1392C54.2549 81.1392 54 80.6903 54 79.8122C54 78.9341 54.2157 78.134 54.6275 77.3339C55.098 76.4363 55.6274 75.9875 56.1961 75.9875C57.8627 75.9875 59.7843 75.7728 61.9608 75.363C64.4902 74.8556 66.1765 74.2702 67.0196 73.5872C67.2549 73.3921 67.3725 73.2165 67.3725 73.0799C67.3725 72.8847 67.1765 72.7481 66.7843 72.7091C65.451 72.5725 64.1176 72.4164 62.7843 72.2798C61.7451 72.1237 61.2157 71.6749 61.2157 70.9333C61.2157 69.8796 61.7843 68.6502 62.9412 67.2647L66.6667 67.7721C67.9216 67.9477 69.1765 68.1233 70.4314 68.3185C72.0784 68.6892 72.902 69.5088 72.902 70.7382Z" fill="#5679B6"/>
<path d="M94.7451 60.0836C94.7451 62.3082 93.8431 64.2791 92.0196 65.9768C90.5294 67.3818 88.8823 68.0843 87.098 68.0843C86.3137 68.0843 85.8627 67.8697 85.7255 67.4013C85.3922 67.655 84.6078 67.9672 83.3529 68.338C82.0196 68.7088 80.9412 68.9234 80.098 68.9625C79.2157 68.9625 78.451 68.7478 77.8039 68.2795C77.1569 67.8111 76.7843 67.2647 76.6863 66.6598C76.4706 65.489 75.6863 64.8645 74.3333 64.7669C73.2745 64.7084 71.7451 65.2158 69.7647 66.25C67.3137 67.5379 65.4902 69.1576 64.2941 71.0895L63 67.2452C64.9412 64.7279 67.2941 62.7375 70.0392 61.2739C72.3922 60.025 74.5098 59.3811 76.3922 59.3811C77.9216 59.3811 78.8431 60.1812 79.1569 61.8008C79.2941 62.5814 79.5098 63.1083 79.8039 63.3814C80.1765 63.7327 80.8627 63.8888 81.8627 63.8693C84 63.7912 85.7255 63.0302 87.0588 61.5862C87.4314 60.9227 87.9608 60.2397 88.6274 59.5567C88.9608 59.5567 89.1372 59.7909 89.1372 60.2787C89.1372 60.6885 89.0392 61.1764 88.8235 61.7618C88.6078 62.3277 88.5098 62.6594 88.5098 62.7375C88.5098 62.8546 88.5686 62.9326 88.7059 62.9326C89.9412 62.8741 90.9804 62.5228 91.7843 61.8594C92.2941 61.4496 92.7843 60.8251 93.2745 60.0055C93.6471 59.3616 93.9216 59.0298 94.0784 59.0103C94.5294 59.0103 94.7647 59.3616 94.7647 60.0836H94.7451Z" fill="#5679B6"/>
<path d="M17.0196 104.79L17.6471 104.088C18.2353 104.693 19.0588 105.102 19.902 105.102C20.9804 105.102 21.6078 104.575 21.6078 103.775C21.6078 102.936 21.0196 102.683 20.2353 102.351L19.0588 101.844C18.2941 101.512 17.3922 100.946 17.3922 99.736C17.3922 98.5261 18.4902 97.5699 19.9608 97.5699C20.9216 97.5699 21.8039 97.9797 22.3725 98.5847L21.8235 99.2482C21.3137 98.7798 20.7255 98.4871 19.9608 98.4871C19.0392 98.4871 18.4314 98.9554 18.4314 99.6775C18.4314 100.458 19.1373 100.751 19.7843 101.024L20.9608 101.531C21.902 101.941 22.6471 102.507 22.6471 103.717C22.6471 105.005 21.5686 106.039 19.8627 106.039C18.7059 106.039 17.7059 105.571 17 104.829L17.0196 104.79Z" fill="#5679B6"/>
<path d="M32.1961 97.7065H33.3725L36.1372 105.863H35.0392L33.6078 101.317C33.3137 100.399 33.0588 99.5018 32.7843 98.5652H32.7255C32.4706 99.5018 32.2157 100.399 31.9216 101.317L30.4706 105.863H29.4118L32.1765 97.7065H32.1961ZM30.8823 102.546H34.6471V103.366H30.8823V102.546Z" fill="#5679B6"/>
<path d="M43.4706 97.7065H44.5098V101.121H48.3137V97.7065H49.3529V105.863H48.3137V102.039H44.5098V105.863H43.4706V97.7065Z" fill="#5679B6"/>
<path d="M59.5294 97.7065H60.7059L63.4706 105.863H62.3726L60.9412 101.317C60.6471 100.399 60.3922 99.5018 60.1177 98.5652H60.0588C59.8039 99.5018 59.549 100.399 59.2549 101.317L57.8039 105.863H56.7451L59.5098 97.7065H59.5294ZM58.2157 102.546H61.9804V103.366H58.2157V102.546Z" fill="#5679B6"/>
<path d="M70.8039 97.7065H73.2353C74.902 97.7065 76.0588 98.2724 76.0588 99.697C76.0588 100.497 75.6275 101.219 74.8627 101.473V101.531C75.8431 101.726 76.5294 102.37 76.5294 103.483C76.5294 105.083 75.2549 105.863 73.4314 105.863H70.8235V97.7065H70.8039ZM73.0588 101.18C74.451 101.18 75.0196 100.673 75.0196 99.8336C75.0196 98.8774 74.3725 98.5261 73.098 98.5261H71.8431V101.18H73.0588ZM73.2745 105.044C74.6667 105.044 75.4902 104.536 75.4902 103.444C75.4902 102.448 74.7059 101.98 73.2745 101.98H71.8431V105.044H73.2745Z" fill="#5679B6"/>
<path d="M72.2353 0C71.0196 14.2842 65.3529 27.2806 56.6078 37.6425C56.4902 37.6425 56.3725 37.662 56.2549 37.6815C52.3529 38.1889 48.5294 38.9304 44.8235 39.9061C44.4314 39.8281 44 39.7695 43.5882 39.711C33.2157 38.2084 23 38.5987 13.2941 40.6281C23.1961 29.7198 29.5098 15.5722 30.5294 0H72.2353Z" fill="#BD9473"/>
<path d="M90.1176 40.1208C85.8039 38.9109 81.3725 38.0523 76.8431 37.5644C75.0392 34.5788 73.8823 31.2029 73.549 27.5538C73.2353 30.9882 72.1569 34.2275 70.549 37.0766H70.5294C68.8039 36.9985 67.0588 36.979 65.2941 37.018C63.2941 37.0571 61.2745 37.1742 59.2353 37.3498C67.1373 27.4172 72.2745 15.2795 73.5294 1.97092C73.9412 6.40059 74.7843 10.6937 76.0196 14.8111C78.8431 24.2754 83.7059 32.8811 90.098 40.1012L90.1176 40.1208Z" fill="#BD9473"/>
<path d="M27.5098 8.46907C26.2941 14.5769 24.2157 20.4311 21.3725 25.8755C18.8235 30.7345 15.6667 35.2813 11.9412 39.3987L11.1569 40.2574C10.098 40.4915 9.09804 40.7452 8.15686 40.9989C8.19608 40.4135 8.23529 39.8281 8.29412 39.2426C9.62745 26.5781 16.6274 15.3185 27.5098 8.44955V8.46907Z" fill="#F1C679"/>
<path d="M91.4118 38.8328C85.098 31.6712 80.4314 23.2412 77.7647 14.2257C77.5686 13.5232 77.3726 12.8402 77.1765 12.1377C77.8039 12.6841 78.4314 13.25 79.0196 13.8159C85.9216 20.4897 90.3137 29.3295 91.4118 38.8328Z" fill="#F1C679"/>
<path opacity="0.5" d="M76.0392 14.8306C73.5882 16.1771 71.1765 18.3431 69.1961 21.9923C66.5098 26.9488 65.7843 32.4322 65.2941 37.0375C63.2941 37.0766 61.2745 37.1937 59.2353 37.3693C67.1373 27.4367 72.2745 15.299 73.5294 1.99042C73.9412 6.42009 74.7843 10.7132 76.0196 14.8306H76.0392Z" fill="#8A6D52"/>
<path opacity="0.47" d="M21.3725 25.8951C18.8235 30.754 15.6667 35.3008 11.9412 39.4183L11.1569 40.2769C10.098 40.511 9.09804 40.7647 8.15686 41.0184C8.19608 40.433 8.23529 39.8476 8.29412 39.2621C10.3333 35.3008 15.451 30.1686 21.3725 25.8755V25.8951Z" fill="#D7A556"/>
<path opacity="0.23" d="M51.2549 1.99043C48.9412 1.9514 42.6863 2.10751 36.9608 6.14691C35.6078 7.10309 32.451 9.36672 30.3137 13.5427C29.6471 14.8306 29.2353 16.0015 28.9804 16.8406C29.7647 14.011 30.4902 10.8108 30.9608 7.27872C31.2157 5.42489 31.3922 3.66863 31.4902 1.99043C38.0784 1.99043 44.6471 1.99043 51.2353 1.99043H51.2549Z" fill="#DBB9A0"/>
</g>
<defs>
<clipPath id="clip0_0_12">
<rect width="98" height="106" fill="white"/>
</clipPath>
</defs>
</svg>
