<svg width="21" height="21" viewBox="0 0 21 21" fill="none" xmlns="http://www.w3.org/2000/svg">
<path d="M19.8416 9.79827C20.3484 9.28393 20.5273 8.52905 20.3085 7.82856C20.0901 7.12778 19.5195 6.62663 18.8192 6.52063L14.4955 5.86624C14.276 5.83288 14.0864 5.68937 13.9882 5.48235L12.0546 1.40099C11.7415 0.740419 11.1076 0.330078 10.4002 0.330078C9.69289 0.330078 9.05894 0.740419 8.74586 1.40099L6.81222 5.48231C6.7141 5.68941 6.52445 5.83292 6.30531 5.8662L1.98133 6.52059C1.28102 6.62663 0.710352 7.12778 0.49211 7.82819C0.273243 8.52905 0.45211 9.28397 0.958789 9.79815L4.08762 12.9753C4.24633 13.1363 4.31875 13.3684 4.28137 13.5957L3.54262 18.0818C3.42324 18.808 3.70445 19.5281 4.27652 19.961C4.84871 20.394 5.59324 20.4501 6.21965 20.1074L10.0869 17.9895C10.2831 17.8821 10.5173 17.8822 10.7133 17.9894L14.5809 20.1074C15.2073 20.4502 15.9518 20.394 16.524 19.961C17.096 19.5281 17.3773 18.808 17.2579 18.0818L16.5191 13.5959C16.4818 13.3684 16.5541 13.1363 16.713 12.9751L19.8416 9.79827Z" fill="#F3C87A"/>
</svg>
